# xmcd
#
# Track frame offsets: 
#        150
#        17722
#        36518
#        44274
#        58975
#        76473
#        94983
#        111395
#        131878
#        154764
#        167060
#        178788
#        195890
#        212366
#        227784
#
# Disc length: 3336 seconds
#
# Revision: 2
# Processed by: cddbd v1.5.1PL0 Copyright (c) Steve Scherf et al.
# Submitted via: ExactAudioCopy v0.95a3
#
DISCID=d00d060f
DTITLE=Jazz In The City - Jazz In The City [CD1]
DYEAR=2004
DGENRE=Jazz
TTITLE0=Dream A Little Dream of Me - Tony Bennett and K. D. Lang
TTITLE1=More Than This - Charlie Hunter feat. Norah Jones
TTITLE2=My Baby Just Cares For Me - George Michael
TTITLE3=What a Difference A Day Made - Natalie Cole
TTITLE4=Ethernal Flame Laura Fygi
TTITLE5=Frim Fram Sauce - Diana Krall
TTITLE6=Honeysuckle Rose - Jane Monheit
TTITLE7=It Ain't Necessarily So - Jamie Cullum
TTITLE8=All Would Envy - Chris Botti feat. Shawn Colvin
TTITLE9=At Last - Cyndi Lauper
TTITLE10=As Time Goes By - Bryan Ferry
TTITLE11=Nature Boy - Celine Dion
TTITLE12=Secret Love - Mandy Moore
TTITLE13=In My Life - Tuck and Patti
TTITLE14=Love For Sale - Simply Red
EXTD=JAZZ on the city Disk 1 of 2 YEAR: 2004
EXTT0=
EXTT1=
EXTT2=
EXTT3=
EXTT4=
EXTT5=
EXTT6=
EXTT7=
EXTT8=
EXTT9=
EXTT10=
EXTT11=
EXTT12=
EXTT13=
EXTT14=
PLAYORDER=
